<?xml version="1.0" encoding="UTF-8"?>
<svg width="32" height="32" viewBox="0 0 32 32" fill="none" xmlns="http://www.w3.org/2000/svg">
  <path d="M24 20c0-2.21-1.79-4-4-4-0.28 0-0.55 0.03-0.82 0.08C17.55 13.72 15.82 12 13.73 12c-2.37 0-4.29 1.92-4.29 4.29 0 0.28 0.03 0.55 0.08 0.82C6.72 17.55 5 19.28 5 21.5c0 2.21 1.79 4 4 4h15c2.21 0 4-1.79 4-4z" stroke="currentColor" stroke-width="2"/>
  <path d="M16 8v8M12 12l4-4 4 4" stroke="currentColor" stroke-width="2" stroke-linecap="round" stroke-linejoin="round"/>
</svg> 